<!-- copyright © Otag™ by ilgilenio® all rights reserved -->
<svg xmlns="http://www.w3.org/2000/svg" viewBox="0 0 870 270" stroke-linecap="round" stroke-width="17" stroke="#000" fill="transparent"><path d="M 125 149a17 17 1 1 1 0.01 0m0 28l0 13m-45-58l-13 0m103 0l13 0m-58-45l0-13m0-27a85 85 0 1 0 0.1 0.0001m207 170l0-68a17 17 1 1 1 0.01 0m0-34l0-68m-85 85a85 85 0 1 1 170 0m37 85l0-85a85 85 0 0 1 170 0l0 85m-85-68a17 17 1 1 1 0.01 0m0 41m-45-58l-13 0m103 0l13 0m-58-45l0-13m207 75a17 17 1 1 1 0.01 0m20-17l65 0m0 0a85 85 0 1 1 -28 -63"/></svg>